<svg xmlns="http://www.w3.org/2000/svg" width="65.5" height="76" viewBox="0 0 65.5 76">
  <path id="Icon_awesome-calendar-plus" data-name="Icon awesome-calendar-plus" d="M63.746,23.75H1.754A1.773,1.773,0,0,1,0,21.969V16.625A7.074,7.074,0,0,1,7.018,9.5h7.018V1.781A1.773,1.773,0,0,1,15.79,0h5.848a1.773,1.773,0,0,1,1.754,1.781V9.5H42.107V1.781A1.773,1.773,0,0,1,43.862,0H49.71a1.773,1.773,0,0,1,1.754,1.781V9.5h7.018A7.074,7.074,0,0,1,65.5,16.625v5.344A1.773,1.773,0,0,1,63.746,23.75ZM1.754,28.5H63.746A1.773,1.773,0,0,1,65.5,30.281V68.875A7.074,7.074,0,0,1,58.482,76H7.018A7.074,7.074,0,0,1,0,68.875V30.281A1.773,1.773,0,0,1,1.754,28.5Zm46.2,20.781A1.773,1.773,0,0,0,46.2,47.5H37.429V38.594a1.773,1.773,0,0,0-1.754-1.781H29.826a1.773,1.773,0,0,0-1.754,1.781V47.5H19.3a1.773,1.773,0,0,0-1.754,1.781v5.938A1.773,1.773,0,0,0,19.3,57h8.772v8.906a1.773,1.773,0,0,0,1.754,1.781h5.848a1.773,1.773,0,0,0,1.754-1.781V57H46.2a1.773,1.773,0,0,0,1.754-1.781Z" fill="#6c6c6c"/>
</svg>
